<?xml version="1.0" encoding="UTF-8" standalone="no"?>
<!-- Created with Inkscape (http://www.inkscape.org/) -->

<svg
   width="177.6443mm"
   height="177.6443mm"
   viewBox="0 0 177.6443 177.6443"
   version="1.1"
   id="svg1"
   xml:space="preserve"
   inkscape:version="1.4.2 (ebf0e940d0, 2025-05-08)"
   sodipodi:docname="icon.svg"
   inkscape:export-filename="foreground.svg"
   inkscape:export-xdpi="96"
   inkscape:export-ydpi="96"
   xmlns:inkscape="http://www.inkscape.org/namespaces/inkscape"
   xmlns:sodipodi="http://sodipodi.sourceforge.net/DTD/sodipodi-0.dtd"
   xmlns:xlink="http://www.w3.org/1999/xlink"
   xmlns="http://www.w3.org/2000/svg"
   xmlns:svg="http://www.w3.org/2000/svg"><sodipodi:namedview
     id="namedview1"
     pagecolor="#ffffff"
     bordercolor="#000000"
     borderopacity="0.25"
     inkscape:showpageshadow="2"
     inkscape:pageopacity="0.0"
     inkscape:pagecheckerboard="0"
     inkscape:deskcolor="#d1d1d1"
     inkscape:document-units="mm"
     inkscape:zoom="0.82146825"
     inkscape:cx="316.50645"
     inkscape:cy="418.76238"
     inkscape:window-width="1914"
     inkscape:window-height="1074"
     inkscape:window-x="0"
     inkscape:window-y="0"
     inkscape:window-maximized="0"
     inkscape:current-layer="layer1"
     showgrid="false" /><defs
     id="defs1"><linearGradient
       id="linearGradient6"
       inkscape:collect="always"><stop
         style="stop-color:#ffd56c;stop-opacity:1;"
         offset="0"
         id="stop6" /><stop
         style="stop-color:#ff14ec;stop-opacity:1;"
         offset="1"
         id="stop7" /></linearGradient><linearGradient
       inkscape:collect="always"
       xlink:href="#linearGradient6"
       id="linearGradient4"
       x1="104.99242"
       y1="112.62776"
       x2="104.99242"
       y2="237.31458"
       gradientUnits="userSpaceOnUse"
       gradientTransform="translate(1.368007,3.1817793)" /></defs><g
     inkscape:label="Layer 1"
     inkscape:groupmode="layer"
     id="layer1"
     transform="translate(-17.53828,-62.852055)"><rect
       style="display:inline;opacity:1;fill:url(#linearGradient4);fill-opacity:1;stroke-width:0.264999"
       id="rect2"
       width="177.6443"
       height="177.6443"
       x="17.53828"
       y="62.852055"
       inkscape:export-filename="background.svg"
       inkscape:export-xdpi="96"
       inkscape:export-ydpi="96" /><path
       id="rect1"
       style="display:inline;opacity:1;fill:#371c53;fill-opacity:1;stroke-width:0.159567"
       d="m 87.024144,158.42115 c -3.335871,0 -6.02169,2.68548 -6.02169,6.02136 v 24.41816 c 0,3.33586 2.685819,6.02135 6.02169,6.02135 h 38.672906 c 3.33588,0 6.02136,-2.68549 6.02136,-6.02135 v -24.41816 c 0,-3.33588 -2.68548,-6.02136 -6.02136,-6.02136 z m 19.336286,9.50294 a 5.7889134,5.7889134 0 0 1 5.78899,5.78899 5.7889134,5.7889134 0 0 1 -2.66879,4.87617 v 5.09186 c 0,1.31603 -1.05938,2.37541 -2.37541,2.37541 h -1.48958 c -1.31604,0 -2.3754,-1.05938 -2.3754,-2.37541 v -5.09186 a 5.7889134,5.7889134 0 0 1 -2.66879,-4.87617 5.7889134,5.7889134 0 0 1 5.78898,-5.78899 z" /><g
       transform="matrix(0.00609535,0,0,-0.00609535,67.350191,168.47844)"
       fill="#000000"
       stroke="none"
       id="g4"
       inkscape:export-filename="foreground.svg"
       inkscape:export-xdpi="96"
       inkscape:export-ydpi="96"
       style="display:inline"><path
         d="M 6045,9414 C 5443,9379 5119,9339 4629,9240 3010,8912 1430,8071 290,6930 120,6760 78,6701 33,6565 10,6494 7,6469 7,6350 c 0,-119 3,-144 26,-215 38,-115 91,-198 182,-290 137,-138 304,-207 498,-207 112,1 164,10 261,46 103,39 164,85 354,263 447,421 822,707 1303,996 937,563 1941,892 3081,1009 293,30 1029,33 1323,5 1148,-109 2188,-445 3134,-1014 482,-290 858,-578 1306,-999 188,-177 247,-221 353,-260 95,-36 147,-45 259,-46 194,0 361,69 498,207 91,92 144,175 182,290 23,71 26,96 26,215 0,119 -3,144 -26,215 -45,136 -87,195 -257,365 -603,604 -1378,1158 -2179,1559 -1030,516 -2088,810 -3266,906 -177,15 -875,28 -1020,19 z"
         id="path1"
         style="fill:#371c53;fill-opacity:0.303471" /><path
         d="M 5945,6800 C 5540,6767 5135,6699 4768,6600 3765,6329 2803,5779 2089,5070 c -154,-152 -170,-172 -207,-250 -183,-381 4,-819 403,-946 169,-54 333,-40 501,41 78,38 109,61 220,166 418,395 777,647 1249,879 1233,606 2656,661 3945,153 423,-167 862,-421 1217,-705 150,-120 162,-131 369,-323 207,-191 316,-240 534,-239 98,1 127,5 195,28 119,41 181,80 275,175 137,138 194,276 194,471 0,121 -22,208 -82,325 -76,147 -516,546 -917,830 -877,623 -1860,990 -2970,1111 -174,19 -890,28 -1070,14 z"
         id="path2"
         style="fill:#371c53;fill-opacity:0.553718" /><path
         d="m 6065,4360 c -784,-76 -1486,-366 -2082,-861 -159,-132 -319,-296 -360,-369 -212,-372 -32,-843 373,-976 80,-26 102,-29 214,-29 111,1 134,4 205,29 112,39 179,82 302,197 408,380 885,601 1420,659 166,18 515,8 668,-19 389,-69 740,-219 1041,-444 54,-40 159,-128 232,-194 189,-171 291,-220 477,-230 275,-14 519,128 640,372 46,93 68,190 68,300 0,111 -21,194 -74,305 -37,75 -57,100 -168,210 -570,565 -1315,922 -2164,1036 -132,18 -656,27 -792,14 z"
         id="path3"
         style="fill:#371c53;fill-opacity:1" /></g></g></svg>
